
<svg width="5000" height="974" viewBox="0 0 5000 974" fill="none" xmlns="http://www.w3.org/2000/svg">
<g clip-path="url(#clip0_1_2)">
<path d="M1580 428C1564 408 1546 390 1524 378C1492 360 1456 352 1418 352C1372 352 1332 362 1298 382C1262 402 1234 430 1214 466C1194 502 1184 542 1184 590C1184 638 1194 680 1214 714C1234 750 1262 778 1298 798C1334 818 1374 828 1418 828C1458 828 1494 818 1526 802C1548 790 1568 772 1584 750V824H1664V172H1580V430V428ZM1560 676C1546 700 1528 720 1504 734C1480 748 1454 754 1424 754C1394 754 1368 748 1344 734C1320 720 1302 702 1288 676C1274 652 1266 622 1266 590C1266 558 1274 528 1288 504C1302 480 1320 460 1344 448C1368 434 1394 428 1424 428C1454 428 1480 434 1504 448C1528 462 1546 480 1560 504C1574 528 1580 558 1580 590C1580 624 1574 652 1560 676Z" fill="white"/>
<path d="M2110 382C2076 362 2036 352 1990 352C1944 352 1906 362 1870 382C1834 402 1806 430 1786 466C1766 502 1756 542 1756 590C1756 636 1766 678 1788 714C1808 750 1838 778 1876 798C1914 818 1958 828 2008 828C2046 828 2082 822 2112 808C2144 796 2170 776 2190 752L2144 698C2128 716 2108 730 2084 740C2062 750 2036 754 2008 754C1974 754 1944 748 1920 734C1894 720 1874 702 1860 678C1850 660 1842 640 1840 618H2218C2218 614 2220 610 2220 604C2220 600 2220 596 2220 592C2220 544 2210 502 2190 466C2170 430 2144 402 2108 382H2110ZM1912 444C1934 430 1960 424 1990 424C2020 424 2046 430 2068 444C2090 458 2108 476 2122 498C2132 516 2138 536 2140 558H1840C1842 536 1848 518 1858 500C1870 476 1888 458 1912 444Z" fill="white"/>
<path d="M2706 356H2622V822H2706V356Z" fill="white"/>
<path d="M2478 164C2428 164 2390 178 2364 206C2338 234 2324 270 2324 316V358H2244V428H2324V824H2408V428H2542V358H2406V318C2406 290 2412 270 2426 256C2438 242 2458 236 2482 236C2506 236 2528 244 2548 258L2574 194C2562 184 2548 178 2532 174C2516 170 2498 168 2480 168L2478 164Z" fill="white"/>
<path d="M2962 446C2986 432 3014 426 3044 426C3070 426 3092 432 3114 442C3136 452 3154 470 3170 492L3234 450C3216 418 3190 392 3158 376C3124 360 3088 350 3046 350C2998 350 2956 360 2918 380C2880 400 2852 428 2830 464C2808 500 2798 540 2798 588C2798 634 2808 676 2830 712C2852 748 2880 776 2918 796C2956 816 2998 826 3046 826C3088 826 3126 818 3158 800C3192 782 3216 758 3234 726L3170 686C3154 708 3136 726 3114 736C3092 746 3068 752 3044 752C3014 752 2986 746 2962 732C2938 718 2918 700 2904 674C2890 650 2882 620 2882 588C2882 554 2890 526 2904 502C2918 478 2938 458 2962 446Z" fill="white"/>
<path d="M3656 374C3628 360 3594 352 3556 352C3514 352 3476 360 3446 378C3424 390 3406 406 3392 424V172H3308V824H3392V584C3392 550 3398 522 3410 498C3422 476 3440 458 3462 446C3484 434 3510 428 3540 428C3580 428 3610 440 3632 462C3654 484 3666 518 3666 564V822H3750V554C3750 508 3742 470 3726 440C3710 410 3686 388 3658 374H3656Z" fill="white"/>
<path d="M4038 352C4002 352 3966 358 3932 368C3898 378 3870 394 3846 412L3882 476C3900 460 3922 448 3948 440C3974 430 4002 426 4028 426C4070 426 4100 436 4122 456C4142 476 4154 504 4154 540V556H4020C3974 556 3936 562 3910 574C3882 586 3862 602 3850 624C3838 644 3832 668 3832 692C3832 718 3840 742 3854 762C3868 782 3888 800 3914 810C3940 822 3970 828 4006 828C4048 828 4084 820 4112 804C4132 792 4148 778 4158 762V824H4238V542C4238 478 4220 430 4186 400C4152 368 4102 354 4038 354V352ZM4102 742C4078 756 4050 764 4018 764C3986 764 3960 758 3942 744C3924 730 3914 712 3914 690C3914 670 3922 654 3936 638C3950 624 3980 616 4022 616H4152V682C4142 710 4124 730 4100 744L4102 742Z" fill="white"/>
<path d="M4438 356H4354V822H4438V356Z" fill="white"/>
<path d="M4976 440C4960 410 4936 388 4908 374C4880 360 4846 352 4808 352C4766 352 4728 360 4698 378C4674 390 4656 408 4640 428V358H4560V824H4644V584C4644 550 4650 522 4662 498C4674 476 4692 458 4714 446C4736 434 4762 428 4792 428C4832 428 4862 440 4884 462C4906 484 4918 518 4918 564V822H5002V554C5002 508 4994 470 4978 440H4976Z" fill="white"/>
<g clip-path="url(#clip1_1_2)">
<mask id="mask0_1_2" style="mask-type:luminance" maskUnits="userSpaceOnUse" x="0" y="0" width="976" height="974">
<path d="M976 0H0V974H976V0Z" fill="white"/>
</mask>
<g mask="url(#mask0_1_2)">
<path d="M482.89 0.00792363C442.586 0.191501 404.097 3.56102 370.232 9.43548C270.467 26.7132 252.353 62.877 252.353 129.57V217.649H488.11V247.01H252.353H163.876C95.3587 247.01 35.3627 287.381 16.5967 364.18C-5.04958 452.211 -6.00971 507.143 16.5967 599.061C33.3551 667.481 73.3766 716.232 141.894 716.232H222.953V610.644C222.953 534.362 290.28 467.075 370.232 467.075H605.714C671.264 467.075 723.592 414.168 723.592 349.635V129.57C723.592 66.9373 669.693 19.8885 605.714 9.43548C565.214 2.8267 523.192 -0.175656 482.89 0.00792363ZM355.394 70.8492C379.746 70.8492 399.632 90.6622 399.632 115.024C399.632 139.299 379.746 158.929 355.394 158.929C330.955 158.929 311.155 139.299 311.155 115.024C311.155 90.6622 330.955 70.8492 355.394 70.8492Z" fill="url(#paint0_linear_1_2)"/>
<path d="M752.993 247.01V349.635C752.993 429.2 684.181 496.166 605.713 496.166H370.232C305.73 496.166 252.353 550.283 252.353 613.606V833.672C252.353 896.304 307.911 933.144 370.232 951.115C444.859 972.621 516.423 976.508 605.713 951.115C665.067 934.264 723.592 900.364 723.592 833.672V745.592H488.11V716.232H723.592H841.47C909.993 716.232 935.518 669.382 959.347 599.061C983.966 526.667 982.911 457.048 959.347 364.18C942.412 297.316 910.072 247.01 841.47 247.01H752.993ZM620.551 804.312C644.991 804.312 664.791 823.942 664.791 848.218C664.791 872.583 644.991 892.391 620.551 892.391C596.2 892.391 576.313 872.583 576.313 848.218C576.313 823.942 596.2 804.312 620.551 804.312Z" fill="url(#paint1_linear_1_2)"/>
</g>
</g>
</g>
<defs>
<linearGradient id="paint0_linear_1_2" x1="360.505" y1="103.434" x2="617.764" y2="845.446" gradientUnits="userSpaceOnUse">
<stop stop-color="#FF00C7"/>
<stop offset="0.507344" stop-color="#306998"/>
</linearGradient>
<linearGradient id="paint1_linear_1_2" x1="615.496" y1="844.708" x2="358.588" y2="106.88" gradientUnits="userSpaceOnUse">
<stop stop-color="#FF00C7"/>
<stop offset="0.475707" stop-color="#FFE873"/>
</linearGradient>
<clipPath id="clip0_1_2">
<rect width="5000" height="974" fill="white"/>
</clipPath>
<clipPath id="clip1_1_2">
<rect width="976" height="974" fill="white"/>
</clipPath>
</defs>
</svg>
