<svg width="1500" height="500" viewBox="0 0 1500 500" fill="none" xmlns="http://www.w3.org/2000/svg">
<rect width="1500" height="500" fill="black"/>
<path d="M1102.95 169.144V117.08H1108.01L1109.41 123.576V169.144H1102.95ZM1121.51 155.256C1117.37 155.256 1113.85 154.221 1110.95 152.152C1108.05 150.061 1106.6 147.896 1106.6 145.656L1109.41 142.2C1109.41 144.44 1110.39 146.424 1112.33 148.152C1114.29 149.88 1116.63 150.744 1119.33 150.744C1122.17 150.744 1124.4 149.699 1126.02 147.608C1127.67 145.496 1128.49 141.624 1128.49 135.992C1128.49 130.381 1127.67 126.52 1126.02 124.408C1124.4 122.296 1122.17 121.24 1119.33 121.24C1116.63 121.24 1114.29 122.115 1112.33 123.864C1110.39 125.613 1109.41 127.587 1109.41 129.784L1106.6 126.36C1106.6 124.099 1108.05 121.933 1110.95 119.864C1113.85 117.773 1117.37 116.728 1121.51 116.728C1126.05 116.728 1129.45 118.328 1131.69 121.528C1133.93 124.728 1135.05 129.539 1135.05 135.96C1135.05 142.36 1133.93 147.181 1131.69 150.424C1129.45 153.645 1126.05 155.256 1121.51 155.256ZM1149.57 155L1138.43 117.08H1145.22L1155.17 152.312H1153.76L1163.58 117.08H1170.37L1159.39 155H1149.57ZM1139.97 169.784V165.304C1143.59 165.304 1146.43 164.621 1148.48 163.256C1150.55 161.891 1152.19 159.117 1153.41 154.936L1159.39 155C1157.69 160.931 1155.25 164.877 1152.1 166.84C1148.94 168.803 1144.9 169.784 1139.97 169.784ZM1191.65 155.416C1188.85 155.416 1186.52 154.808 1184.64 153.592C1182.76 152.376 1181.82 150.104 1181.82 146.776V121.624H1172.96V117.08H1181.82V108.504H1188.32V117.08H1200.83V121.624H1188.32V145.24C1188.32 147.565 1188.79 149.101 1189.73 149.848C1190.69 150.595 1192.05 150.968 1193.82 150.968C1195.38 150.968 1196.89 150.723 1198.37 150.232V154.616C1196.23 155.149 1193.99 155.416 1191.65 155.416ZM1206.58 155V104.76H1213.04V155H1206.58ZM1230.45 155V133.368C1230.45 128.952 1229.75 125.827 1228.37 123.992C1227 122.157 1224.99 121.24 1222.32 121.24C1219.65 121.24 1217.42 122.232 1215.63 124.216C1213.84 126.179 1212.94 128.653 1212.94 131.64L1209.84 129.624C1209.84 126.531 1211.21 123.608 1213.94 120.856C1216.67 118.083 1220.25 116.696 1224.69 116.696C1229.06 116.696 1232.19 118.147 1234.06 121.048C1235.96 123.928 1236.91 127.949 1236.91 133.112V155H1230.45ZM1259.41 155.288C1253.75 155.288 1249.55 153.709 1246.8 150.552C1244.07 147.395 1242.7 142.52 1242.7 135.928C1242.7 129.336 1244.07 124.483 1246.8 121.368C1249.55 118.253 1253.75 116.696 1259.41 116.696C1265.06 116.696 1269.25 118.253 1271.98 121.368C1274.71 124.483 1276.08 129.336 1276.08 135.928C1276.08 142.52 1274.71 147.395 1271.98 150.552C1269.25 153.709 1265.06 155.288 1259.41 155.288ZM1259.41 150.808C1262.37 150.808 1264.82 149.773 1266.74 147.704C1268.66 145.613 1269.62 141.699 1269.62 135.96C1269.62 130.243 1268.66 126.349 1266.74 124.28C1264.82 122.189 1262.37 121.144 1259.41 121.144C1256.44 121.144 1254 122.189 1252.08 124.28C1250.16 126.349 1249.2 130.243 1249.2 135.96C1249.2 141.699 1250.16 145.613 1252.08 147.704C1254 149.773 1256.44 150.808 1259.41 150.808ZM1282.33 155V117.08H1287.38L1288.79 124.44V155H1282.33ZM1306.1 155V133.368C1306.1 128.952 1305.44 125.827 1304.12 123.992C1302.82 122.157 1300.83 121.24 1298.17 121.24C1295.48 121.24 1293.21 122.232 1291.35 124.216C1289.52 126.179 1288.6 128.653 1288.6 131.64L1285.46 129.624C1285.46 126.531 1286.86 123.608 1289.65 120.856C1292.47 118.083 1296.09 116.696 1300.5 116.696C1304.9 116.696 1308 118.179 1309.81 121.144C1311.65 124.088 1312.57 128.141 1312.57 133.304V155H1306.1Z" fill="url(#paint0_linear_6_2)"/>
<path d="M295.8 232.312C291 226.316 285.6 220.92 279 217.322C269.4 211.926 258.6 209.528 247.2 209.528C233.4 209.528 221.4 212.526 211.2 218.522C200.4 224.517 192 232.912 186 243.704C180 254.497 177 266.489 177 280.879C177 295.269 180 307.86 186 318.053C192 328.846 200.4 337.24 211.2 343.236C222 349.232 234 352.23 247.2 352.23C259.2 352.23 270 349.232 279.6 344.435C286.2 340.838 292.2 335.441 297 328.846V351.031H321V155.565H295.8V232.912V232.312ZM289.8 306.661C285.6 313.856 280.2 319.852 273 324.049C265.8 328.246 258 330.045 249 330.045C240 330.045 232.2 328.246 225 324.049C217.8 319.852 212.4 314.456 208.2 306.661C204 299.466 201.6 290.472 201.6 280.879C201.6 271.285 204 262.292 208.2 255.097C212.4 247.901 217.8 241.906 225 238.308C232.2 234.111 240 232.312 249 232.312C258 232.312 265.8 234.111 273 238.308C280.2 242.505 285.6 247.901 289.8 255.097C294 262.292 295.8 271.285 295.8 280.879C295.8 291.072 294 299.466 289.8 306.661Z" fill="url(#paint1_linear_6_2)"/>
<path d="M454.8 218.522C444.6 212.526 432.6 209.528 418.8 209.528C405 209.528 393.6 212.526 382.8 218.522C372 224.517 363.6 232.912 357.6 243.704C351.6 254.497 348.6 266.489 348.6 280.879C348.6 294.669 351.6 307.261 358.2 318.053C364.2 328.846 373.2 337.24 384.6 343.236C396 349.232 409.2 352.23 424.2 352.23C435.6 352.23 446.4 350.431 455.4 346.234C465 342.637 472.8 336.641 478.8 329.446L465 313.257C460.2 318.653 454.2 322.85 447 325.848C440.4 328.846 432.6 330.045 424.2 330.045C414 330.045 405 328.246 397.8 324.049C390 319.852 384 314.456 379.8 307.261C376.8 301.864 374.4 295.869 373.8 289.273H487.2C487.2 288.074 487.8 286.875 487.8 285.076C487.8 283.877 487.8 282.678 487.8 281.478C487.8 267.088 484.8 254.497 478.8 243.704C472.8 232.912 465 224.517 454.2 218.522H454.8ZM395.4 237.109C402 232.912 409.8 231.113 418.8 231.113C427.8 231.113 435.6 232.912 442.2 237.109C448.8 241.306 454.2 246.702 458.4 253.298C461.4 258.694 463.2 264.69 463.8 271.285H373.8C374.4 264.69 376.2 259.294 379.2 253.897C382.8 246.702 388.2 241.306 395.4 237.109Z" fill="url(#paint2_linear_6_2)"/>
<path d="M633.6 210.727H608.4V350.431H633.6V210.727Z" fill="url(#paint3_linear_6_2)"/>
<path d="M565.2 153.166C550.2 153.166 538.8 157.363 531 165.758C523.2 174.152 519 184.945 519 198.735V211.326H495V232.312H519V351.031H544.2V232.312H584.4V211.326H543.6V199.335C543.6 190.94 545.4 184.945 549.6 180.747C553.2 176.55 559.2 174.752 566.4 174.752C573.6 174.752 580.2 177.15 586.2 181.347L594 162.16C590.4 159.162 586.2 157.363 581.4 156.164C576.6 154.965 571.2 154.365 565.8 154.365L565.2 153.166Z" fill="url(#paint4_linear_6_2)"/>
<path d="M710.4 237.708C717.6 233.511 726 231.713 735 231.713C742.8 231.713 749.4 233.511 756 236.509C762.6 239.507 768 244.903 772.8 251.499L792 238.908C786.6 229.314 778.8 221.52 769.2 216.723C759 211.926 748.2 208.928 735.6 208.928C721.2 208.928 708.6 211.926 697.2 217.922C685.8 223.918 677.4 232.312 670.8 243.105C664.2 253.897 661.2 265.889 661.2 280.279C661.2 294.07 664.2 306.661 670.8 317.454C677.4 328.246 685.8 336.641 697.2 342.637C708.6 348.632 721.2 351.63 735.6 351.63C748.2 351.63 759.6 349.232 769.2 343.836C779.4 338.439 786.6 331.244 792 321.651L772.8 309.659C768 316.255 762.6 321.651 756 324.649C749.4 327.647 742.2 329.446 735 329.446C726 329.446 717.6 327.647 710.4 323.45C703.2 319.253 697.2 313.856 693 306.062C688.8 298.867 686.4 289.873 686.4 280.279C686.4 270.086 688.8 261.692 693 254.497C697.2 247.302 703.2 241.306 710.4 237.708Z" fill="url(#paint5_linear_6_2)"/>
<path d="M918.6 216.123C910.2 211.926 900 209.528 888.6 209.528C876 209.528 864.6 211.926 855.6 217.322C849 220.92 843.6 225.717 839.4 231.113V155.565H814.2V351.031H839.4V279.08C839.4 268.887 841.2 260.493 844.8 253.298C848.4 246.702 853.8 241.306 860.4 237.708C867 234.111 874.8 232.312 883.8 232.312C895.8 232.312 904.8 235.91 911.4 242.505C918 249.101 921.6 259.294 921.6 273.084V350.431H946.8V270.086C946.8 256.296 944.4 244.903 939.6 235.91C934.8 226.916 927.6 220.32 919.2 216.123H918.6Z" fill="url(#paint6_linear_6_2)"/>
<path d="M1033.2 209.528C1022.4 209.528 1011.6 211.326 1001.4 214.324C991.2 217.322 982.8 222.119 975.6 227.515L986.4 246.702C991.8 241.906 998.4 238.308 1006.2 235.91C1014 232.912 1022.4 231.713 1030.2 231.713C1042.8 231.713 1051.8 234.71 1058.4 240.706C1064.4 246.702 1068 255.097 1068 265.889V270.686H1027.8C1014 270.686 1002.6 272.485 994.8 276.082C986.4 279.68 980.4 284.476 976.8 291.072C973.2 297.068 971.4 304.263 971.4 311.458C971.4 319.253 973.8 326.448 978 332.444C982.2 338.439 988.2 343.836 996 346.834C1003.8 350.431 1012.8 352.23 1023.6 352.23C1036.2 352.23 1047 349.832 1055.4 345.035C1061.4 341.437 1066.2 337.24 1069.2 332.444V351.031H1093.2V266.489C1093.2 247.302 1087.8 232.912 1077.6 223.918C1067.4 214.324 1052.4 210.127 1033.2 210.127V209.528ZM1052.4 326.448C1045.2 330.645 1036.8 333.043 1027.2 333.043C1017.6 333.043 1009.8 331.244 1004.4 327.047C999 322.85 996 317.454 996 310.858C996 304.862 998.4 300.066 1002.6 295.269C1006.8 291.072 1015.8 288.674 1028.4 288.674H1067.4V308.46C1064.4 316.854 1059 322.85 1051.8 327.047L1052.4 326.448Z" fill="url(#paint7_linear_6_2)"/>
<path d="M1153.2 210.727H1128V350.431H1153.2V210.727Z" fill="url(#paint8_linear_6_2)"/>
<path d="M1314.6 235.91C1309.8 226.916 1302.6 220.32 1294.2 216.123C1285.8 211.926 1275.6 209.528 1264.2 209.528C1251.6 209.528 1240.2 211.926 1231.2 217.322C1224 220.92 1218.6 226.316 1213.8 232.312V211.326H1189.8V351.031H1215V279.08C1215 268.887 1216.8 260.493 1220.4 253.298C1224 246.702 1229.4 241.306 1236 237.708C1242.6 234.111 1250.4 232.312 1259.4 232.312C1271.4 232.312 1280.4 235.91 1287 242.505C1293.6 249.101 1297.2 259.294 1297.2 273.084V350.431H1322.4V270.086C1322.4 256.296 1320 244.903 1315.2 235.91H1314.6Z" fill="url(#paint9_linear_6_2)"/>
<defs>
<linearGradient id="paint0_linear_6_2" x1="1208" y1="104" x2="1208" y2="182" gradientUnits="userSpaceOnUse">
<stop stop-color="#FFC700"/>
<stop offset="0.90625" stop-color="#FF00E5" stop-opacity="0.74"/>
</linearGradient>
<linearGradient id="paint1_linear_6_2" x1="249" y1="155.565" x2="249" y2="352.23" gradientUnits="userSpaceOnUse">
<stop offset="0.265625" stop-color="#FF00E6"/>
<stop offset="1" stop-color="#0500FF"/>
</linearGradient>
<linearGradient id="paint2_linear_6_2" x1="418.2" y1="209.528" x2="418.2" y2="352.23" gradientUnits="userSpaceOnUse">
<stop offset="0.265625" stop-color="#FF00E6"/>
<stop offset="1" stop-color="#0500FF"/>
</linearGradient>
<linearGradient id="paint3_linear_6_2" x1="621" y1="210.727" x2="621" y2="350.431" gradientUnits="userSpaceOnUse">
<stop offset="0.265625" stop-color="#FF00E6"/>
<stop offset="1" stop-color="#0500FF"/>
</linearGradient>
<linearGradient id="paint4_linear_6_2" x1="544.5" y1="153.166" x2="544.5" y2="351.031" gradientUnits="userSpaceOnUse">
<stop offset="0.265625" stop-color="#FF00E6"/>
<stop offset="1" stop-color="#0500FF"/>
</linearGradient>
<linearGradient id="paint5_linear_6_2" x1="726.6" y1="208.928" x2="726.6" y2="351.63" gradientUnits="userSpaceOnUse">
<stop offset="0.265625" stop-color="#FF00E6"/>
<stop offset="1" stop-color="#0500FF"/>
</linearGradient>
<linearGradient id="paint6_linear_6_2" x1="880.5" y1="155.565" x2="880.5" y2="351.031" gradientUnits="userSpaceOnUse">
<stop offset="0.265625" stop-color="#FF00E6"/>
<stop offset="1" stop-color="#0500FF"/>
</linearGradient>
<linearGradient id="paint7_linear_6_2" x1="1032.3" y1="209.528" x2="1032.3" y2="352.23" gradientUnits="userSpaceOnUse">
<stop offset="0.265625" stop-color="#FF00E6"/>
<stop offset="1" stop-color="#0500FF"/>
</linearGradient>
<linearGradient id="paint8_linear_6_2" x1="1140.6" y1="210.727" x2="1140.6" y2="350.431" gradientUnits="userSpaceOnUse">
<stop offset="0.265625" stop-color="#FF00E6"/>
<stop offset="1" stop-color="#0500FF"/>
</linearGradient>
<linearGradient id="paint9_linear_6_2" x1="1256.1" y1="209.528" x2="1256.1" y2="351.031" gradientUnits="userSpaceOnUse">
<stop offset="0.265625" stop-color="#FF00E6"/>
<stop offset="1" stop-color="#0500FF"/>
</linearGradient>
</defs>
</svg>
