<svg width="500" height="510" viewBox="0 0 500 510" fill="none" xmlns="http://www.w3.org/2000/svg">
<g clip-path="url(#clip0_3_17)">
<path d="M247.382 0.00414087C226.735 0.100078 207.017 1.86098 189.668 4.93094C138.559 13.9602 129.279 32.8593 129.279 67.7125V113.743H250.056V129.086H129.279H83.9529C48.8517 129.086 18.1161 150.184 8.50241 190.319C-2.58687 236.324 -3.07874 265.031 8.50241 313.067C17.0877 348.823 37.5904 374.3 72.6916 374.3H114.217V319.12C114.217 279.256 148.709 244.092 189.668 244.092H310.304C343.885 244.092 370.693 216.443 370.693 182.718V67.7125C370.693 34.9812 343.08 10.3937 310.304 4.93094C289.557 1.47723 268.029 -0.0917974 247.382 0.00414087ZM182.067 37.0255C194.542 37.0255 204.73 47.3798 204.73 60.1111C204.73 72.7973 194.542 83.0559 182.067 83.0559C169.546 83.0559 159.403 72.7973 159.403 60.1111C159.403 47.3798 169.546 37.0255 182.067 37.0255Z" fill="url(#paint0_linear_3_17)"/>
<path d="M385.755 129.086V182.718C385.755 224.298 350.503 259.295 310.304 259.295H189.668C156.624 259.295 129.279 287.576 129.279 320.669V435.674C129.279 468.405 157.742 487.658 189.668 497.048C227.899 508.29 264.561 510.321 310.304 497.048C340.71 488.244 370.693 470.527 370.693 435.674V389.644H250.056V374.3H370.693H431.081C466.182 374.3 479.263 349.816 491.47 313.067C504.079 275.234 503.543 238.852 491.47 190.319C482.795 155.376 466.227 129.086 431.081 129.086H385.755ZM317.906 420.331C330.426 420.331 340.569 430.589 340.569 443.276C340.569 456.007 330.426 466.361 317.906 466.361C305.43 466.361 295.242 456.007 295.242 443.276C295.242 430.589 305.43 420.331 317.906 420.331Z" fill="url(#paint1_linear_3_17)"/>
</g>
<defs>
<linearGradient id="paint0_linear_3_17" x1="184.685" y1="54.0541" x2="321.236" y2="440.144" gradientUnits="userSpaceOnUse">
<stop stop-color="#FF00C7"/>
<stop offset="0.507344" stop-color="#306998"/>
</linearGradient>
<linearGradient id="paint1_linear_3_17" x1="315.315" y1="441.441" x2="178.955" y2="57.5414" gradientUnits="userSpaceOnUse">
<stop stop-color="#FF00C7"/>
<stop offset="0.475707" stop-color="#FFE873"/>
</linearGradient>
<clipPath id="clip0_3_17">
<rect width="500" height="509.009" fill="white"/>
</clipPath>
</defs>
</svg>
