<?xml version="1.0" encoding="UTF-8"?>
<svg xmlns:xodm="http://www.corel.com/coreldraw/odm/2003" xmlns="http://www.w3.org/2000/svg" xmlns:xlink="http://www.w3.org/1999/xlink" version="1.1" id="Layer_1" x="0px" y="0px" viewBox="0 0 2500 487" style="enable-background:new 0 0 2500 487;" xml:space="preserve">
<style type="text/css">
	.st0{fill:#FF00AF;}
</style>
<g id="Layer_x0020_1">
	<g id="_2251193014656">
		<path d="M790,214c-8-10-17-19-28-25c-16-9-34-13-53-13c-23,0-43,5-60,15c-18,10-32,24-42,42s-15,38-15,62s5,45,15,62    c10,18,24,32,42,42s38,15,60,15c20,0,38-5,54-13c11-6,21-15,29-26v37h40V86h-42v129l0,0V214z M780,338c-7,12-16,22-28,29    s-25,10-40,10s-28-3-40-10s-21-16-28-29c-7-12-11-27-11-43s4-31,11-43c7-12,16-22,28-28c12-7,25-10,40-10s28,3,40,10s21,16,28,28    c7,12,10,27,10,43C790,312,787,326,780,338z"></path>
		<path d="M1055,191c-17-10-37-15-60-15s-42,5-60,15s-32,24-42,42s-15,38-15,62c0,23,5,44,16,62c10,18,25,32,44,42s41,15,66,15    c19,0,37-3,52-10c16-6,29-16,39-28l-23-27c-8,9-18,16-30,21c-11,5-24,7-38,7c-17,0-32-3-44-10c-13-7-23-16-30-28c-5-9-9-19-10-30    h189c0-2,1-4,1-7c0-2,0-4,0-6c0-24-5-45-15-63s-23-32-41-42l0,0H1055z M956,222c11-7,24-10,39-10s28,3,39,10s20,16,27,27    c5,9,8,19,9,30H920c1-11,4-20,9-29C935,238,944,229,956,222z"></path>
		<rect x="1311" y="178" width="42" height="233"></rect>
		<path d="M1239,82c-25,0-44,7-57,21s-20,32-20,55v21h-40v35h40v198h42V214h67v-35h-68v-20c0-14,3-24,10-31c6-7,16-10,28-10    s23,4,33,11l13-32c-6-5-13-8-21-10s-17-3-26-3l0,0L1239,82z"></path>
		<path d="M1481,223c12-7,26-10,41-10c13,0,24,3,35,8s20,14,28,25l32-21c-9-16-22-29-38-37c-17-8-35-13-56-13c-24,0-45,5-64,15    s-33,24-44,42s-16,38-16,62c0,23,5,44,16,62s25,32,44,42s40,15,64,15c21,0,40-4,56-13c17-9,29-21,38-37l-32-20c-8,11-17,20-28,25    s-23,8-35,8c-15,0-29-3-41-10s-22-16-29-29c-7-12-11-27-11-43c0-17,4-31,11-43C1459,239,1469,229,1481,223L1481,223z"></path>
		<path d="M1828,187c-14-7-31-11-50-11c-21,0-40,4-55,13c-11,6-20,14-27,23V86h-42v326h42V292c0-17,3-31,9-43c6-11,15-20,26-26    s24-9,39-9c20,0,35,6,46,17s17,28,17,51v129h42V277c0-23-4-42-12-57s-20-26-34-33l0,0H1828z"></path>
		<path d="M2019,176c-18,0-36,3-53,8s-31,13-43,22l18,32c9-8,20-14,33-18c13-5,27-7,40-7c21,0,36,5,47,15c10,10,16,24,16,42v8h-67    c-23,0-42,3-55,9c-14,6-24,14-30,25c-6,10-9,22-9,34c0,13,4,25,11,35s17,19,30,24c13,6,28,9,46,9c21,0,39-4,53-12    c10-6,18-13,23-21v31h40V271c0-32-9-56-26-71c-17-16-42-23-74-23V176z M2051,371c-12,7-26,11-42,11s-29-3-38-10s-14-16-14-27    c0-10,4-18,11-26c7-7,22-11,43-11h65v33c-5,14-14,24-26,31l0,0L2051,371z"></path>
		<rect x="2177" y="178" width="42" height="233"></rect>
		<path d="M2488,220c-8-15-20-26-34-33s-31-11-50-11c-21,0-40,4-55,13c-12,6-21,15-29,25v-35h-40v233h42V292c0-17,3-31,9-43    c6-11,15-20,26-26s24-9,39-9c20,0,35,6,46,17s17,28,17,51v129h42V277c0-23-4-42-12-57l0,0H2488z"></path>
		<path class="st0" d="M298,426V62c78,23,136,96,136,182S377,403,298,426L298,426z M244,0v206l-31-31l-4-77l32-97c-21,0-41,3-60,8    l-16,47l-44-22c-18,10-34,22-48,36l82,41l2,47l-47-2L69,74c-14,14-26,31-36,48l22,44L8,182c-5,19-8,39-8,60l97-32l77,4l31,31    l-31,31l-77,4L0,248c0,21,3,41,8,60l47,16l-22,44c10,17,22,34,36,48l41-82l47-2l-2,47l-82,41c14,14,31,26,48,36l44-22l16,47    c19,5,39,8,60,8l-32-97l4-77l31-31v206c135,0,244-109,244-244S379,3,244,3V0z"></path>
	</g>
</g>
</svg>
